#!OML:ASF I:\Actors\actors\Patient Classification 2\Patient 1\Session 1\actor1.ASF
:FULLY-SPECIFIED
:DEGREES
325
root -0.980484 17.5378 6.39409 -13.4856 -2.65133 -2.452
lowerback -2.56983 -1.81547 0.224986
upperback -3.35718 -2.39341 1.9229
thorax -1.93183 -1.17678 1.82591
lowerneck -4.21849 -17.5824 -16.9531
upperneck 23.7415 -25.2789 7.99452
head 11.6341 -12.5037 1.96989
rclavicle 1.51076e-014 -4.77083e-015
rhumerus -32.5761 46.2996 -68.3491
rradius 96.3294
rwrist -25.1409
rhand -8.7084 -32.1538
rfingers 7.12502
rthumb 17.2271 -61.4102
lclavicle 1.51076e-014 -4.77083e-015
lhumerus -35.6324 -49.1631 71.09
lradius 106.332
lwrist 43.756
lhand -7.83575 -16.9417
lfingers 7.12502
lthumb 18.0669 12.2392
rfemur 36.7877 -0.208768 17.5292
rtibia -21.4391
rfoot -11.2827 -17.4725
rtoes -5.66953
lfemur 37.6568 -4.95366 -14.8671
ltibia -24.0893
lfoot -2.08715 13.2953
ltoes -12.5134
326
root -0.977908 17.5359 6.40784 -13.4311 -2.75468 -2.39722
lowerback -2.70913 -1.82583 0.121486
upperback -3.35687 -2.40808 1.89469
thorax -1.85002 -1.18264 1.84961
lowerneck -4.23154 -17.5308 -16.9946
upperneck 23.8543 -25.2102 7.98133
head 11.6749 -12.4763 1.97877
rclavicle 1.37161e-014 0
rhumerus -34.0957 46.2594 -68.4904
rradius 98.0692
rwrist -25.5537
rhand -8.74706 -32.0951
rfingers 7.12502
rthumb 17.1899 -61.3548
lclavicle 1.37161e-014 0
lhumerus -37.0394 -49.3588 71.39
lradius 107.679
lwrist 44.1887
lhand -7.76448 -16.6606
lfingers 7.12502
lthumb 18.1354 12.514
rfemur 36.7164 -0.144903 17.4675
rtibia -21.3515
rfoot -11.3256 -17.2916
rtoes -5.78292
lfemur 37.6688 -5.00716 -14.9914
ltibia -24.0549
lfoot -2.23215 13.3994
ltoes -12.3469
327
root -0.976848 17.5342 6.42209 -13.3662 -2.87166 -2.41557
lowerback -2.78604 -1.82744 0.0860093
upperback -3.36854 -2.41071 1.87605
thorax -1.81823 -1.18358 1.84779
lowerneck -4.14446 -17.4731 -17.0202
upperneck 23.9367 -25.1385 7.94321
head 11.6789 -12.4549 1.98967
rclavicle 1.92821e-014 -3.97569e-016
rhumerus -35.6722 46.1491 -68.6764
rradius 99.7037
rwrist -25.9051
rhand -9.37323 -31.7069
rfingers 7.12502
rthumb 16.5871 -61.018
lclavicle 1.92821e-014 -3.97569e-016
lhumerus -38.483 -49.6258 71.6588
lradius 109.004
lwrist 44.6646
lhand -7.47722 -16.4488
lfingers 7.12502
lthumb 18.4118 12.6998
rfemur 36.6299 -0.0604219 17.5008
rtibia -21.2462
rfoot -11.4324 -17.144
rtoes -5.98699
lfemur 37.6703 -5.01156 -14.9992
ltibia -24.0197
lfoot -2.37729 13.4681
ltoes -12.1491
328
root -0.976924 17.5349 6.43556 -13.2625 -2.95496 -2.44267
lowerback -2.83814 -1.81795 0.0583595
upperback -3.35209 -2.39902 1.83818
thorax -1.77292 -1.17792 1.82226
lowerneck -4.12045 -17.4309 -17.0798
upperneck 24.0669 -25.1039 7.98222
head 11.7351 -12.4407 2.01376
rclavicle 5.36719e-015 1.98785e-015
rhumerus -37.0055 45.7057 -68.5808
rradius 101.125
rwrist -25.3401
rhand -8.56918 -31.8798
rfingers 7.12502
rthumb 17.3611 -61.1244
lclavicle 5.36719e-015 1.98785e-015
lhumerus -39.7762 -50.0132 71.7628
lradius 110.306
lwrist 45.33
lhand -7.06659 -16.345
lfingers 7.12502
lthumb 18.8068 12.7658
rfemur 36.5003 0.0258544 17.5619
rtibia -21.1161
rfoot -11.6218 -17.0548
rtoes -6.26581
lfemur 37.6165 -5.00271 -14.9794
ltibia -23.9851
lfoot -2.49135 13.4834
ltoes -11.9456
329
root -0.976728 17.5379 6.44877 -13.1366 -2.98304 -2.46366
lowerback -2.86382 -1.80705 -0.0199405
upperback -3.27861 -2.38502 1.82407
thorax -1.68073 -1.17027 1.84906
lowerneck -4.26559 -17.4111 -17.1449
upperneck 24.2391 -25.0839 8.04578
head 11.846 -12.4203 2.02522
rclavicle -1.2921e-015 5.96354e-015
rhumerus -38.6214 45.6291 -68.7324
rradius 102.962
rwrist -26.8857
rhand -9.84887 -31.6355
rfingers 7.12502
rthumb 16.1292 -60.9843
lclavicle -1.2921e-015 5.96354e-015
lhumerus -40.7834 -50.3395 71.7509
lradius 111.509
lwrist 46.0796
lhand -6.54038 -16.1908
lfingers 7.12502
lthumb 19.3128 12.8702
rfemur 36.3365 0.0870656 17.6161
rtibia -20.954
rfoot -11.8707 -16.9629
rtoes -6.1174
lfemur 37.5261 -5.01208 -14.9645
ltibia -23.969
lfoot -2.55713 13.4794
ltoes -11.8813
330
root -0.976103 17.5402 6.46489 -12.9944 -3.00389 -2.52145
lowerback -2.89292 -1.79142 -0.0736246
upperback -3.16081 -2.36537 1.84156
thorax -1.54094 -1.16049 1.89352
lowerneck -4.45946 -17.4126 -17.1845
upperneck 24.3895 -25.066 8.05092
head 11.9454 -12.4015 2.01019
rclavicle 2.92213e-014 -8.34896e-015
rhumerus -40.0013 45.2937 -68.5644
rradius 104.72
rwrist -27.4315
rhand -8.43939 -32.5508
rfingers 7.12502
rthumb 17.486 -61.7844
lclavicle 2.92213e-014 -8.34896e-015
lhumerus -41.6895 -50.5787 71.7454
lradius 112.636
lwrist 46.8342
lhand -6.28344 -15.8568
lfingers 7.12502
lthumb 19.5599 13.1793
rfemur 36.1448 0.0938078 17.683
rtibia -20.7563
rfoot -12.0679 -16.8196
rtoes -5.92588
lfemur 37.4455 -5.0474 -14.9196
ltibia -23.9805
lfoot -2.66401 13.5132
ltoes -11.8451
331
root -0.975504 17.5437 6.48117 -12.7709 -3.03363 -2.6083
lowerback -2.9323 -1.77146 -0.0551244
upperback -3.06127 -2.3411 1.83191
thorax -1.41841 -1.14992 1.86998
lowerneck -4.57441 -17.3981 -17.1912
upperneck 24.5229 -25.0447 8.07453
head 12.0212 -12.3817 2.00736
rclavicle 2.6339e-014 -6.75868e-015
rhumerus -41.5406 44.922 -68.5957
rradius 106.452
rwrist -27.6492
rhand -7.69706 -32.5075
rfingers 7.12502
rthumb 18.2003 -61.676
lclavicle 2.6339e-014 -6.75868e-015
lhumerus -42.7504 -50.8386 71.7536
lradius 113.802
lwrist 47.6257
lhand -6.24497 -15.4381
lfingers 7.12502
lthumb 19.5969 13.5942
rfemur 35.8419 0.0902711 17.7735
rtibia -20.5259
rfoot -12.239 -16.647
rtoes -5.82464
lfemur 37.3035 -5.10877 -14.8514
ltibia -24.0193
lfoot -2.74042 13.5461
ltoes -11.849
332
root -0.97607 17.5497 6.49365 -12.4758 -3.05025 -2.77607
lowerback -2.87931 -1.75661 0.0387733
upperback -3.00053 -2.32341 1.83157
thorax -1.38982 -1.14321 1.81785
lowerneck -4.62208 -17.3569 -17.1611
upperneck 24.6481 -25.002 8.11012
head 12.0747 -12.3526 2.01657
rclavicle 2.29596e-014 -8.74653e-015
rhumerus -43.1764 44.5773 -68.7425
rradius 108.151
rwrist -27.6517
rhand -7.67238 -31.9244
rfingers 7.12502
rthumb 18.2241 -61.0907
lclavicle 2.29596e-014 -8.74653e-015
lhumerus -43.9314 -51.1354 71.7405
lradius 114.99
lwrist 48.5291
lhand -6.06902 -15.0776
lfingers 7.12502
lthumb 19.766 13.9374
rfemur 35.4459 0.114485 17.9858
rtibia -20.2938
rfoot -12.4353 -16.5286
rtoes -5.49784
lfemur 37.0639 -5.14847 -14.6581
ltibia -24.0623
lfoot -2.69116 13.5104
ltoes -12.1215
333
root -0.978007 17.5571 6.50506 -12.1555 -3.03687 -2.94475
lowerback -2.77645 -1.74673 0.108235
upperback -2.95067 -2.31101 1.8563
thorax -1.39818 -1.13821 1.80697
lowerneck -4.54364 -17.2934 -17.2202
upperneck 24.7056 -24.9351 8.18334
head 12.0937 -12.3234 2.06754
rclavicle -1.32192e-014 -1.98785e-015
rhumerus -44.754 44.2602 -68.748
rradius 109.902
rwrist -27.8329
rhand -7.28566 -32.4472
rfingers 7.12502
rthumb 18.5961 -61.5783
lclavicle -1.32192e-014 -1.98785e-015
lhumerus -45.1809 -51.4514 71.7694
lradius 116.158
lwrist 49.5655
lhand -5.79781 -14.6096
lfingers 7.12502
lthumb 20.0267 14.3783
rfemur 35.0335 0.141478 18.2187
rtibia -20.0759
rfoot -12.6283 -16.493
rtoes -5.36327
lfemur 36.7656 -5.17557 -14.4409
ltibia -24.0837
lfoot -2.64181 13.4564
ltoes -12.3319
334
root -0.979525 17.5653 6.51833 -11.8394 -2.97356 -2.94006
lowerback -2.67466 -1.74169 0.0192167
upperback -2.88429 -2.30325 1.8435
thorax -1.38414 -1.13329 1.8457
lowerneck -4.40307 -17.2049 -17.4524
upperneck 24.8178 -24.8499 8.32969
head 12.1571 -12.2948 2.1696
rclavicle 1.35174e-014 -6.75868e-015
rhumerus -45.9579 43.7636 -68.2287
rradius 111.454
rwrist -27.1724
rhand -4.59364 -34.0196
rfingers 7.12502
rthumb 21.1838 -62.8822
lclavicle 1.35174e-014 -6.75868e-015
lhumerus -46.4525 -51.7646 71.8329
lradius 117.315
lwrist 50.5865
lhand -5.49204 -13.8576
lfingers 7.12502
lthumb 20.3206 15.0993
rfemur 34.6468 0.0972927 18.2191
rtibia -19.8771
rfoot -12.7482 -16.4595
rtoes -5.70559
lfemur 36.444 -5.25904 -14.4546
ltibia -24.0692
lfoot -2.6513 13.4886
ltoes -12.3914
335
root -0.979826 17.5734 6.53399 -11.5467 -2.91031 -2.85194
lowerback -2.52681 -1.73122 -0.128521
upperback -2.81252 -2.28755 1.80451
thorax -1.38939 -1.12361 1.89198
lowerneck -4.1455 -17.0751 -17.7758
upperneck 25.0066 -24.7337 8.50471
head 12.2424 -12.2632 2.30773
rclavicle 8.24956e-015 -8.54774e-015
rhumerus -47.4236 43.5439 -67.9256
rradius 113.137
rwrist -27.7457
rhand -2.95597 -34.5055
rfingers 7.12502
rthumb 22.7562 -63.1834
lclavicle 8.24956e-015 -8.54774e-015
lhumerus -47.8083 -52.0982 71.9298
lradius 118.487
lwrist 51.5968
lhand -4.94693 -12.9442
lfingers 7.12502
lthumb 20.8444 15.9561
rfemur 34.3159 0.0228671 18.0897
rtibia -19.7304
rfoot -12.8127 -16.4112
rtoes -5.88683
lfemur 36.1273 -5.3484 -14.5849
ltibia -23.9998
lfoot -2.69659 13.5833
ltoes -12.6028
